<svg width="89" height="29" viewBox="0 0 89 29" fill="none" xmlns="http://www.w3.org/2000/svg">
<path d="M1.74 19V11.4H0.1V9.08H1.74V7.46C1.74 6.67333 1.87333 6.06 2.14 5.62C2.40667 5.18 2.82 4.87333 3.38 4.7C3.94 4.52667 4.66667 4.44 5.56 4.44H6.94V6.84H6.1C5.56667 6.84 5.21333 6.89333 5.04 7C4.86667 7.10667 4.78 7.35333 4.78 7.74V9.08H6.94V11.4H4.78V19H1.74ZM15.6238 19C14.8104 19 14.1638 18.9333 13.6838 18.8C13.2038 18.6533 12.8571 18.38 12.6438 17.98C12.4438 17.5667 12.3438 16.9733 12.3438 16.2V5.64H15.3838V15.4C15.3838 15.8667 15.4771 16.1733 15.6638 16.32C15.8504 16.4533 16.1971 16.52 16.7038 16.52H17.5638V19H15.6238ZM27.5528 19.24C26.4861 19.24 25.5395 19.0333 24.7128 18.62C23.8995 18.1933 23.2595 17.5867 22.7928 16.8C22.3395 16.0133 22.1128 15.0733 22.1128 13.98C22.1128 12.9267 22.3528 12.0133 22.8328 11.24C23.3261 10.4667 23.9728 9.86667 24.7728 9.44C25.5861 9.01333 26.4728 8.8 27.4328 8.8C28.5261 8.8 29.4595 9.06 30.2328 9.58C31.0195 10.0867 31.6128 10.7933 32.0128 11.7C32.4128 12.5933 32.5795 13.6267 32.5128 14.8H25.1728C25.2261 15.4933 25.4795 16.0133 25.9328 16.36C26.3995 16.7067 26.9128 16.88 27.4728 16.88C27.9395 16.88 28.3395 16.8133 28.6728 16.68C29.0195 16.5333 29.2861 16.3533 29.4728 16.14L31.8928 17.02C31.3728 17.78 30.7195 18.34 29.9328 18.7C29.1595 19.06 28.3661 19.24 27.5528 19.24ZM25.1728 13H29.6928C29.6795 12.36 29.4595 11.88 29.0328 11.56C28.6061 11.2267 28.0995 11.06 27.5128 11.06C26.9395 11.06 26.4261 11.2133 25.9728 11.52C25.5328 11.8267 25.2661 12.32 25.1728 13ZM36.9609 19L40.6409 13.82L37.2609 9.08H40.5809L42.3009 11.5L44.0009 9.08H47.3209L43.9409 13.82L47.6209 19H44.3009L42.3009 16.14L40.2809 19H36.9609ZM79.295 19.24C78.2283 19.24 77.2817 19.0333 76.455 18.62C75.6417 18.1933 75.0017 17.5867 74.535 16.8C74.0817 16.0133 73.855 15.0733 73.855 13.98C73.855 12.9267 74.095 12.0133 74.575 11.24C75.0683 10.4667 75.715 9.86667 76.515 9.44C77.3283 9.01333 78.215 8.8 79.175 8.8C80.2683 8.8 81.2017 9.06 81.975 9.58C82.7617 10.0867 83.355 10.7933 83.755 11.7C84.155 12.5933 84.3217 13.6267 84.255 14.8H76.915C76.9683 15.4933 77.2217 16.0133 77.675 16.36C78.1417 16.7067 78.655 16.88 79.215 16.88C79.6817 16.88 80.0817 16.8133 80.415 16.68C80.7617 16.5333 81.0283 16.3533 81.215 16.14L83.635 17.02C83.115 17.78 82.4617 18.34 81.675 18.7C80.9017 19.06 80.1083 19.24 79.295 19.24ZM76.915 13H81.435C81.4217 12.36 81.2017 11.88 80.775 11.56C80.3483 11.2267 79.8417 11.06 79.255 11.06C78.6817 11.06 78.1683 11.2133 77.715 11.52C77.275 11.8267 77.0083 12.32 76.915 13Z" fill="#02367B"/>
<path d="M55.525 7.44C55.0317 7.44 54.605 7.26667 54.245 6.92C53.8983 6.56 53.725 6.13333 53.725 5.64C53.725 5.13333 53.8983 4.70667 54.245 4.36C54.605 4.01333 55.0317 3.84 55.525 3.84C56.0317 3.84 56.4583 4.01333 56.805 4.36C57.1517 4.70667 57.325 5.13333 57.325 5.64C57.325 6.13333 57.1517 6.56 56.805 6.92C56.4583 7.26667 56.0317 7.44 55.525 7.44ZM53.985 19V11.4H52.105V9.08H57.045V19H53.985Z" fill="#F8A700"/>
<path d="M62.9336 19V9.08H65.3336L65.8736 10.9C66.1803 10.1 66.6003 9.54 67.1336 9.22C67.6669 8.9 68.3136 8.76 69.0736 8.8V11.84C68.9136 11.8133 68.7736 11.8 68.6536 11.8C68.5336 11.7867 68.4003 11.78 68.2536 11.78C67.5203 11.78 66.9536 11.9533 66.5536 12.3C66.1669 12.6467 65.9736 13.2133 65.9736 14V19H62.9336Z" fill="#CB000B"/>
<path d="M78.2929 6.29249C78.1531 6.43238 78.0578 6.6106 78.0192 6.80463C77.9806 6.99865 78.0004 7.19977 78.0761 7.38254C78.1518 7.5653 78.28 7.72152 78.4444 7.83143C78.6089 7.94134 78.8022 8 79 8C79.1978 8 79.3911 7.94134 79.5556 7.83143C79.72 7.72152 79.8482 7.5653 79.9239 7.38254C79.9996 7.19977 80.0194 6.99865 79.9808 6.80463C79.9422 6.6106 79.8469 6.43238 79.7071 6.29249C79.5194 6.10519 79.2651 6 79 6C78.7349 6 78.4806 6.10519 78.2929 6.29249Z" fill="#02367B"/>
<path d="M83.2929 7.29249C83.1531 7.43238 83.0578 7.6106 83.0192 7.80463C82.9806 7.99865 83.0004 8.19977 83.0761 8.38254C83.1518 8.5653 83.28 8.72152 83.4444 8.83143C83.6089 8.94134 83.8022 9 84 9C84.1978 9 84.3911 8.94134 84.5556 8.83143C84.72 8.72152 84.8482 8.5653 84.9239 8.38254C84.9996 8.19977 85.0194 7.99865 84.9808 7.80463C84.9422 7.6106 84.8469 7.43238 84.7071 7.29249C84.5194 7.10519 84.2651 7 84 7C83.7349 7 83.4806 7.10519 83.2929 7.29249Z" fill="#02367B"/>
<path d="M87.2929 13.7925C87.1531 13.9324 87.0578 14.1106 87.0192 14.3046C86.9806 14.4987 87.0004 14.6998 87.0761 14.8825C87.1518 15.0653 87.28 15.2215 87.4444 15.3314C87.6089 15.4413 87.8022 15.5 88 15.5C88.1978 15.5 88.3911 15.4413 88.5556 15.3314C88.72 15.2215 88.8482 15.0653 88.9239 14.8825C88.9996 14.6998 89.0194 14.4987 88.9808 14.3046C88.9422 14.1106 88.8469 13.9324 88.7071 13.7925C88.5194 13.6052 88.2651 13.5 88 13.5C87.7349 13.5 87.4806 13.6052 87.2929 13.7925Z" fill="#02367B"/>
<path d="M86.2929 10.2925C86.1531 10.4324 86.0578 10.6106 86.0192 10.8046C85.9806 10.9987 86.0004 11.1998 86.0761 11.3825C86.1518 11.5653 86.28 11.7215 86.4444 11.8314C86.6089 11.9413 86.8022 12 87 12C87.1978 12 87.3911 11.9413 87.5556 11.8314C87.72 11.7215 87.8482 11.5653 87.9239 11.3825C87.9996 11.1998 88.0194 10.9987 87.9808 10.8046C87.9422 10.6106 87.8469 10.4324 87.7071 10.2925C87.5194 10.1052 87.2651 10 87 10C86.7349 10 86.4806 10.1052 86.2929 10.2925Z" fill="#02367B"/>
<path d="M86.2929 17.2925C86.1531 17.4324 86.0578 17.6106 86.0192 17.8046C85.9806 17.9987 86.0004 18.1998 86.0761 18.3825C86.1518 18.5653 86.28 18.7215 86.4444 18.8314C86.6089 18.9413 86.8022 19 87 19C87.1978 19 87.3911 18.9413 87.5556 18.8314C87.72 18.7215 87.8482 18.5653 87.9239 18.3825C87.9996 18.1998 88.0194 17.9987 87.9808 17.8046C87.9422 17.6106 87.8469 17.4324 87.7071 17.2925C87.5194 17.1052 87.2651 17 87 17C86.7349 17 86.4806 17.1052 86.2929 17.2925Z" fill="#02367B"/>
<path d="M83.2929 19.2925C83.1531 19.4324 83.0578 19.6106 83.0192 19.8046C82.9806 19.9987 83.0004 20.1998 83.0761 20.3825C83.1518 20.5653 83.28 20.7215 83.4444 20.8314C83.6089 20.9413 83.8022 21 84 21C84.1978 21 84.3911 20.9413 84.5556 20.8314C84.72 20.7215 84.8482 20.5653 84.9239 20.3825C84.9996 20.1998 85.0194 19.9987 84.9808 19.8046C84.9422 19.6106 84.8469 19.4324 84.7071 19.2925C84.5194 19.1052 84.2651 19 84 19C83.7349 19 83.4806 19.1052 83.2929 19.2925Z" fill="#02367B"/>
<path d="M78.2929 20.2925C78.1531 20.4324 78.0578 20.6106 78.0192 20.8046C77.9806 20.9987 78.0004 21.1998 78.0761 21.3825C78.1518 21.5653 78.28 21.7215 78.4444 21.8314C78.6089 21.9413 78.8022 22 79 22C79.1978 22 79.3911 21.9413 79.5556 21.8314C79.72 21.7215 79.8482 21.5653 79.9239 21.3825C79.9996 21.1998 80.0194 20.9987 79.9808 20.8046C79.9422 20.6106 79.8469 20.4324 79.7071 20.2925C79.5194 20.1052 79.2651 20 79 20C78.7349 20 78.4806 20.1052 78.2929 20.2925Z" fill="#02367B"/>
<path d="M6.69318 26H6.34091C6.32008 25.8987 6.28362 25.8097 6.23153 25.733C6.1804 25.6562 6.1179 25.5919 6.04403 25.5398C5.97112 25.4867 5.89015 25.447 5.80114 25.4205C5.71212 25.3939 5.61932 25.3807 5.52273 25.3807C5.34659 25.3807 5.18703 25.4252 5.04403 25.5142C4.90199 25.6032 4.78883 25.7344 4.70455 25.9077C4.62121 26.081 4.57955 26.2936 4.57955 26.5455C4.57955 26.7973 4.62121 27.0099 4.70455 27.1832C4.78883 27.3565 4.90199 27.4877 5.04403 27.5767C5.18703 27.6657 5.34659 27.7102 5.52273 27.7102C5.61932 27.7102 5.71212 27.697 5.80114 27.6705C5.89015 27.6439 5.97112 27.6046 6.04403 27.5526C6.1179 27.4995 6.1804 27.4347 6.23153 27.358C6.28362 27.2803 6.32008 27.1913 6.34091 27.0909H6.69318C6.66667 27.2396 6.61837 27.3726 6.5483 27.4901C6.47822 27.6075 6.3911 27.7074 6.28693 27.7898C6.18277 27.8712 6.06581 27.9332 5.93608 27.9759C5.80729 28.0185 5.66951 28.0398 5.52273 28.0398C5.27462 28.0398 5.05398 27.9792 4.8608 27.858C4.66761 27.7367 4.51563 27.5644 4.40483 27.3409C4.29403 27.1174 4.23864 26.8523 4.23864 26.5455C4.23864 26.2386 4.29403 25.9735 4.40483 25.75C4.51563 25.5265 4.66761 25.3542 4.8608 25.233C5.05398 25.1117 5.27462 25.0511 5.52273 25.0511C5.66951 25.0511 5.80729 25.0724 5.93608 25.1151C6.06581 25.1577 6.18277 25.2202 6.28693 25.3026C6.3911 25.384 6.47822 25.4834 6.5483 25.6009C6.61837 25.7173 6.66667 25.8504 6.69318 26ZM15.317 26.5455C15.317 26.8523 15.2616 27.1174 15.1508 27.3409C15.04 27.5644 14.888 27.7367 14.6948 27.858C14.5016 27.9792 14.281 28.0398 14.0329 28.0398C13.7848 28.0398 13.5641 27.9792 13.371 27.858C13.1778 27.7367 13.0258 27.5644 12.915 27.3409C12.8042 27.1174 12.7488 26.8523 12.7488 26.5455C12.7488 26.2386 12.8042 25.9735 12.915 25.75C13.0258 25.5265 13.1778 25.3542 13.371 25.233C13.5641 25.1117 13.7848 25.0511 14.0329 25.0511C14.281 25.0511 14.5016 25.1117 14.6948 25.233C14.888 25.3542 15.04 25.5265 15.1508 25.75C15.2616 25.9735 15.317 26.2386 15.317 26.5455ZM14.9761 26.5455C14.9761 26.2936 14.9339 26.081 14.8496 25.9077C14.7663 25.7344 14.6531 25.6032 14.5102 25.5142C14.3681 25.4252 14.209 25.3807 14.0329 25.3807C13.8567 25.3807 13.6972 25.4252 13.5542 25.5142C13.4121 25.6032 13.299 25.7344 13.2147 25.9077C13.1314 26.081 13.0897 26.2936 13.0897 26.5455C13.0897 26.7973 13.1314 27.0099 13.2147 27.1832C13.299 27.3565 13.4121 27.4877 13.5542 27.5767C13.6972 27.6657 13.8567 27.7102 14.0329 27.7102C14.209 27.7102 14.3681 27.6657 14.5102 27.5767C14.6531 27.4877 14.7663 27.3565 14.8496 27.1832C14.9339 27.0099 14.9761 26.7973 14.9761 26.5455ZM23.8161 25.0909V28H23.4752L21.89 25.7159H21.8616V28H21.5093V25.0909H21.8502L23.4411 27.3807H23.4695V25.0909H23.8161ZM31.7119 25.8182C31.6949 25.6742 31.6258 25.5625 31.5045 25.483C31.3833 25.4034 31.2347 25.3636 31.0585 25.3636C30.9297 25.3636 30.817 25.3845 30.7205 25.4261C30.6248 25.4678 30.55 25.5251 30.496 25.598C30.443 25.6709 30.4165 25.7538 30.4165 25.8466C30.4165 25.9242 30.4349 25.991 30.4719 26.0469C30.5098 26.1018 30.558 26.1477 30.6168 26.1847C30.6755 26.2206 30.737 26.2505 30.8014 26.2741C30.8658 26.2969 30.925 26.3153 30.979 26.3295L31.2744 26.4091C31.3502 26.429 31.4345 26.4564 31.5273 26.4915C31.621 26.5265 31.7105 26.5743 31.7957 26.6349C31.8819 26.6946 31.9529 26.7713 32.0088 26.8651C32.0647 26.9588 32.0926 27.0739 32.0926 27.2102C32.0926 27.3674 32.0514 27.5095 31.969 27.6364C31.8876 27.7633 31.7683 27.8641 31.6111 27.9389C31.4548 28.0137 31.265 28.0511 31.0415 28.0511C30.8331 28.0511 30.6527 28.0175 30.5003 27.9503C30.3488 27.883 30.2295 27.7893 30.1423 27.669C30.0562 27.5488 30.0074 27.4091 29.996 27.25H30.3597C30.3691 27.3598 30.4061 27.4508 30.4705 27.5227C30.5358 27.5937 30.6182 27.6468 30.7176 27.6818C30.818 27.7159 30.9259 27.733 31.0415 27.733C31.1759 27.733 31.2967 27.7112 31.4037 27.6676C31.5107 27.6231 31.5955 27.5616 31.658 27.483C31.7205 27.4034 31.7517 27.3106 31.7517 27.2045C31.7517 27.108 31.7247 27.0294 31.6707 26.9688C31.6168 26.9081 31.5457 26.8589 31.4577 26.821C31.3696 26.7831 31.2744 26.75 31.1722 26.7216L30.8142 26.6193C30.5869 26.554 30.407 26.4607 30.2744 26.3395C30.1419 26.2183 30.0756 26.0597 30.0756 25.8636C30.0756 25.7008 30.1196 25.5587 30.2077 25.4375C30.2967 25.3153 30.416 25.2206 30.5656 25.1534C30.7162 25.0852 30.8843 25.0511 31.0699 25.0511C31.2574 25.0511 31.4241 25.0848 31.5699 25.152C31.7157 25.2183 31.8312 25.3092 31.9165 25.4247C32.0027 25.5402 32.0481 25.6714 32.0528 25.8182H31.7119ZM40.1809 25.0909H40.5332V27.017C40.5332 27.2159 40.4863 27.3935 40.3925 27.5497C40.2997 27.705 40.1686 27.8277 39.9991 27.9176C39.8296 28.0066 39.6307 28.0511 39.4025 28.0511C39.1743 28.0511 38.9754 28.0066 38.8059 27.9176C38.6364 27.8277 38.5048 27.705 38.411 27.5497C38.3182 27.3935 38.2718 27.2159 38.2718 27.017V25.0909H38.6241V26.9886C38.6241 27.1307 38.6553 27.2571 38.7178 27.3679C38.7803 27.4777 38.8693 27.5644 38.9849 27.6278C39.1014 27.6903 39.2406 27.7216 39.4025 27.7216C39.5644 27.7216 39.7036 27.6903 39.8201 27.6278C39.9366 27.5644 40.0256 27.4777 40.0871 27.3679C40.1496 27.2571 40.1809 27.1307 40.1809 26.9886V25.0909ZM46.8366 28V25.0909H47.1889V27.6875H48.5412V28H46.8366ZM54.1408 25.4034V25.0909H56.3227V25.4034H55.4079V28H55.0556V25.4034H54.1408ZM62.8186 25.0909V28H62.4663V25.0909H62.8186ZM71.4318 25.0909V28H71.0908L69.5056 25.7159H69.4772V28H69.1249V25.0909H69.4658L71.0568 27.3807H71.0852V25.0909H71.4318ZM79.7253 26C79.694 25.9044 79.6528 25.8187 79.6017 25.7429C79.5515 25.6662 79.4914 25.6009 79.4213 25.5469C79.3522 25.4929 79.2736 25.4517 79.1855 25.4233C79.0974 25.3949 79.0009 25.3807 78.8957 25.3807C78.7234 25.3807 78.5667 25.4252 78.4256 25.5142C78.2845 25.6032 78.1723 25.7344 78.0889 25.9077C78.0056 26.081 77.9639 26.2936 77.9639 26.5455C77.9639 26.7973 78.0061 27.0099 78.0903 27.1832C78.1746 27.3565 78.2887 27.4877 78.4327 27.5767C78.5766 27.6657 78.7385 27.7102 78.9185 27.7102C79.0851 27.7102 79.2319 27.6747 79.3588 27.6037C79.4866 27.5317 79.5861 27.4304 79.6571 27.2997C79.7291 27.1681 79.7651 27.0133 79.7651 26.8352L79.873 26.858H78.998V26.5455H80.106V26.858C80.106 27.0975 80.0548 27.3059 79.9526 27.483C79.8512 27.66 79.7111 27.7973 79.5321 27.8949C79.3541 27.9915 79.1495 28.0398 78.9185 28.0398C78.6609 28.0398 78.4346 27.9792 78.2395 27.858C78.0454 27.7367 77.8938 27.5644 77.7849 27.3409C77.677 27.1174 77.623 26.8523 77.623 26.5455C77.623 26.3153 77.6538 26.1084 77.7153 25.9247C77.7778 25.7401 77.8659 25.5829 77.9795 25.4531C78.0932 25.3234 78.2277 25.224 78.383 25.1548C78.5383 25.0857 78.7092 25.0511 78.8957 25.0511C79.0491 25.0511 79.1921 25.0743 79.3247 25.1207C79.4582 25.1662 79.5771 25.2311 79.6813 25.3153C79.7864 25.3987 79.874 25.4986 79.944 25.6151C80.0141 25.7306 80.0624 25.8589 80.0889 26H79.7253Z" fill="#02367B"/>
</svg>
